<svg xmlns="http://www.w3.org/2000/svg" viewBox="0 0 473 441" role="img" aria-label="SDC Sedrah Contracting"><rect width="473" height="441" rx="84" fill="#050a10"/><path d="M267,128 L267,191 L269,191 L272,193 L274,193 L282,197 L287,198 L290,200 L292,200 L295,202 L297,202 L300,204 L302,204 L305,206 L307,206 L310,208 L317,210 L322,213 L324,213 L327,215 L329,215 L332,217 L337,218 L342,221 L344,221 L347,223 L349,223 L352,225 L359,227 L364,230 L366,230 L369,232 L376,234 L381,237 L383,237 L406,249 L412,254 L413,254 L419,260 L413,265 L412,265 L407,269 L404,270 L402,272 L370,288 L368,288 L347,299 L337,307 L336,307 L330,313 L330,314 L326,319 L326,321 L324,325 L324,388 L326,386 L326,385 L335,376 L336,376 L345,369 L405,339 L407,337 L411,335 L414,332 L419,329 L427,321 L427,320 L432,314 L432,312 L434,309 L435,303 L436,302 L436,224 L435,223 L435,219 L434,218 L432,211 L425,202 L425,201 L419,195 L418,195 L411,189 L410,189 L405,185 L402,184 L400,182 L394,179 L392,179 L387,176 L385,176 L380,173 L378,173 L375,171 L373,171 L370,169 L363,167 L358,164 L353,163 L346,159 L344,159 L341,157 L339,157 L336,155 L334,155 L331,153 L329,153 L326,151 L324,151 L321,149 L319,149 L316,147 L314,147 L311,145 L304,143 L299,140 L297,140 L294,138 L289,137 L284,134 L282,134 L279,132 L277,132 L274,130 Z M241,36 L233,40 L231,42 L200,57 L198,59 L153,81 L151,83 L68,124 L66,126 L63,127 L57,132 L56,132 L44,144 L38,155 L37,161 L36,162 L36,246 L37,247 L37,250 L39,253 L39,255 L44,263 L54,273 L55,273 L60,277 L63,278 L65,280 L73,284 L75,284 L80,287 L82,287 L87,290 L89,290 L92,292 L97,293 L100,295 L102,295 L105,297 L107,297 L110,299 L112,299 L115,301 L117,301 L120,303 L122,303 L125,305 L127,305 L130,307 L132,307 L135,309 L137,309 L140,311 L142,311 L150,315 L155,316 L158,318 L160,318 L163,320 L165,320 L173,324 L178,325 L181,327 L186,328 L189,330 L191,330 L194,332 L196,332 L199,334 L204,335 L209,338 L211,338 L214,340 L221,342 L250,356 L252,358 L260,362 L272,372 L273,372 L284,384 L284,385 L288,390 L294,404 L294,332 L293,331 L292,326 L284,312 L270,298 L269,298 L266,295 L265,295 L257,289 L254,288 L252,286 L248,285 L243,282 L243,36 Z M192,126 L191,128 L192,130 L191,132 L192,134 L191,136 L192,137 L192,259 L191,260 L186,259 L183,257 L181,257 L178,255 L176,255 L173,253 L171,253 L163,249 L158,248 L150,244 L145,243 L142,241 L140,241 L137,239 L135,239 L132,237 L130,237 L122,233 L117,232 L114,230 L112,230 L109,228 L107,228 L104,226 L102,226 L99,224 L97,224 L94,222 L92,222 L89,220 L82,218 L72,213 L70,211 L65,209 L52,200 L52,199 L61,191 L62,191 L70,185 L75,183 L77,181 L141,149 L143,149 L176,132 L178,132 L191,125 Z" fill="#fff" fill-rule="evenodd"/></svg>