<svg xmlns="http://www.w3.org/2000/svg" viewBox="0 0 1074 405" role="img" aria-label="SDC Sedrah Contracting"><path d="M977,321 L977,346 L978,347 L980,347 L981,346 L981,321 Z M1039,320 L1038,321 L1034,322 L1031,325 L1029,329 L1029,336 L1031,340 L1036,344 L1038,344 L1039,345 L1043,345 L1044,344 L1046,344 L1050,341 L1051,342 L1051,346 L1047,351 L1045,351 L1044,352 L1036,351 L1033,349 L1031,350 L1031,352 L1034,354 L1037,354 L1038,355 L1045,355 L1046,354 L1050,353 L1054,348 L1054,345 L1055,344 L1055,322 L1054,321 L1051,321 L1051,323 L1050,324 L1048,322 L1044,320 Z M1038,324 L1046,324 L1051,330 L1051,335 L1050,337 L1045,341 L1038,341 L1036,340 L1033,336 L1033,330 Z M1014,322 L1010,320 L1006,320 L1005,321 L1003,321 L1000,324 L999,323 L999,321 L995,321 L995,346 L996,347 L998,347 L999,346 L999,329 L1003,324 L1010,324 L1013,327 L1013,329 L1014,330 L1014,347 L1016,347 L1017,346 L1017,326 Z M928,320 L927,321 L923,322 L918,327 L918,329 L917,330 L917,338 L919,342 L922,345 L926,347 L935,347 L940,343 L939,341 L937,341 L935,343 L933,343 L932,344 L927,344 L922,340 L921,336 L920,335 L922,328 L926,324 L933,324 L937,327 L938,327 L940,325 L940,324 L933,320 Z M885,322 L885,324 L886,325 L888,325 L889,324 L897,324 L899,325 L902,331 L901,332 L899,331 L889,331 L885,333 L885,334 L883,336 L883,342 L884,344 L888,347 L896,347 L901,344 L902,345 L902,347 L904,347 L905,346 L905,328 L904,327 L904,325 L900,321 L898,321 L897,320 L892,320 L891,321 Z M886,339 L890,334 L900,334 L902,336 L901,340 L896,344 L890,344 Z M874,320 L869,321 L865,326 L864,325 L864,321 L861,321 L860,322 L860,346 L861,347 L864,347 L864,333 L865,332 L865,330 L868,326 L872,324 L874,324 Z M800,321 L799,322 L799,346 L800,347 L803,347 L803,330 L805,326 L808,324 L814,324 L818,328 L818,346 L819,347 L821,347 L822,346 L822,328 L821,327 L821,325 L817,321 L815,321 L814,320 L810,320 L809,321 L807,321 L804,324 L803,323 L803,321 Z M771,320 L767,322 L762,327 L761,329 L761,338 L762,339 L762,341 L769,347 L778,347 L782,345 L785,342 L787,338 L787,329 L784,324 L783,324 L780,321 L778,321 L777,320 Z M773,323 L779,325 L783,329 L783,332 L784,333 L783,339 L777,344 L772,344 L768,342 L766,340 L765,338 L765,335 L764,334 L765,329 L770,324 L772,324 Z M632,322 L632,324 L633,325 L635,325 L636,324 L644,324 L648,328 L648,331 L647,332 L646,331 L635,331 L633,332 L630,335 L630,337 L629,338 L630,343 L635,347 L643,347 L647,344 L649,347 L651,347 L652,346 L652,328 L650,324 L648,322 L644,321 L643,320 L638,320 L637,321 L634,321 Z M633,337 L636,334 L646,334 L648,336 L648,340 L643,344 L637,344 L634,342 L633,340 Z M621,320 L618,320 L616,321 L612,325 L611,324 L611,321 L607,321 L607,346 L608,347 L610,347 L611,346 L611,332 L612,331 L612,329 L616,325 L618,324 L621,324 Z M543,320 L539,322 L535,326 L534,328 L534,331 L533,332 L533,337 L534,338 L535,342 L539,346 L541,347 L551,347 L556,344 L556,342 L555,341 L549,344 L544,344 L540,342 L537,338 L537,336 L538,335 L557,335 L557,329 L556,328 L556,326 L552,322 L548,320 Z M537,330 L542,324 L546,323 L547,324 L549,324 L553,328 L553,330 L554,331 L553,332 L538,332 Z M953,313 L953,320 L952,321 L950,321 L950,324 L952,324 L953,325 L953,343 L954,345 L957,347 L964,347 L965,346 L965,343 L963,344 L960,344 L957,341 L957,325 L958,324 L965,324 L965,321 L958,321 L957,320 L957,313 Z M837,313 L837,319 L835,321 L833,321 L833,324 L836,324 L837,325 L836,327 L837,344 L840,347 L848,347 L848,343 L846,344 L843,344 L840,341 L840,325 L841,324 L848,324 L848,321 L841,321 L840,320 L840,313 Z M977,311 L977,314 L978,315 L981,315 L981,311 Z M733,311 L727,314 L722,320 L722,322 L720,326 L720,332 L721,333 L721,336 L723,340 L728,345 L732,347 L743,347 L749,344 L751,342 L751,341 L749,339 L745,342 L741,343 L740,344 L735,344 L734,343 L730,342 L725,336 L725,334 L724,333 L724,326 L725,325 L726,321 L733,315 L735,315 L736,314 L743,315 L748,319 L749,319 L751,317 L751,316 L749,314 L742,311 Z M506,311 L505,312 L503,312 L498,317 L498,324 L501,328 L505,330 L508,330 L509,331 L515,332 L518,335 L519,338 L518,340 L513,344 L508,344 L507,343 L504,343 L499,339 L497,341 L497,343 L505,347 L515,347 L519,345 L521,343 L522,341 L522,334 L519,330 L515,328 L509,327 L508,326 L505,326 L502,323 L502,318 L505,315 L507,315 L508,314 L509,315 L514,315 L518,318 L519,318 L521,316 L521,315 L513,311 Z M665,310 L665,346 L666,347 L668,347 L669,346 L669,329 L670,327 L673,324 L679,324 L683,327 L683,330 L684,331 L684,347 L687,347 L687,327 L685,323 L680,320 L675,320 L671,322 L670,324 L669,323 L669,311 L668,310 Z M593,310 L590,310 L590,324 L589,325 L588,323 L582,320 L578,320 L577,321 L575,321 L570,325 L568,329 L568,338 L569,339 L569,341 L572,345 L576,347 L584,347 L589,343 L590,344 L590,347 L593,347 Z M577,324 L584,324 L586,325 L588,327 L590,331 L590,337 L589,339 L583,344 L578,344 L576,343 L572,338 L572,335 L571,334 L572,332 L572,329 Z M691,111 L691,275 L692,276 L770,276 L771,275 L810,275 L811,274 L823,273 L824,272 L827,272 L833,269 L835,269 L846,263 L854,256 L854,255 L860,248 L865,238 L865,236 L867,232 L867,229 L868,228 L868,225 L869,224 L869,220 L870,219 L870,212 L871,211 L872,186 L871,185 L871,173 L870,172 L870,166 L869,165 L869,161 L868,160 L868,157 L867,156 L866,150 L864,147 L864,145 L862,141 L860,139 L856,132 L849,125 L848,125 L842,120 L836,117 L834,117 L831,115 L828,115 L827,114 L825,114 L824,113 L820,113 L819,112 L814,112 L813,111 L803,111 L802,110 L692,110 Z M723,140 L724,139 L802,139 L803,140 L809,140 L810,141 L813,141 L819,144 L821,144 L823,146 L824,146 L831,153 L835,160 L835,162 L838,169 L839,180 L840,181 L840,200 L839,201 L839,210 L838,211 L838,215 L837,216 L837,219 L836,220 L835,225 L831,232 L821,241 L817,243 L815,243 L812,245 L809,245 L808,246 L802,246 L801,247 L724,247 L723,246 Z M249,110 L249,173 L251,173 L254,175 L256,175 L264,179 L269,180 L272,182 L274,182 L277,184 L279,184 L282,186 L284,186 L287,188 L289,188 L292,190 L299,192 L304,195 L306,195 L309,197 L311,197 L314,199 L319,200 L324,203 L326,203 L329,205 L331,205 L334,207 L341,209 L346,212 L348,212 L351,214 L358,216 L363,219 L365,219 L388,231 L394,236 L395,236 L401,242 L395,247 L394,247 L389,251 L386,252 L384,254 L352,270 L350,270 L329,281 L319,289 L318,289 L312,295 L312,296 L308,301 L308,303 L306,307 L306,370 L308,368 L308,367 L317,358 L318,358 L327,351 L387,321 L389,319 L393,317 L396,314 L401,311 L409,303 L409,302 L414,296 L414,294 L416,291 L417,285 L418,284 L418,206 L417,205 L417,201 L416,200 L414,193 L407,184 L407,183 L401,177 L400,177 L393,171 L392,171 L387,167 L384,166 L382,164 L376,161 L374,161 L369,158 L367,158 L362,155 L360,155 L357,153 L355,153 L352,151 L345,149 L340,146 L335,145 L328,141 L326,141 L323,139 L321,139 L318,137 L316,137 L313,135 L311,135 L308,133 L306,133 L303,131 L301,131 L298,129 L296,129 L293,127 L286,125 L281,122 L279,122 L276,120 L271,119 L266,116 L264,116 L261,114 L259,114 L256,112 Z M920,126 L913,134 L904,150 L904,152 L901,159 L901,162 L900,163 L899,176 L898,177 L898,209 L899,210 L900,222 L901,223 L901,226 L902,227 L905,238 L913,252 L925,264 L931,267 L933,269 L937,271 L939,271 L946,274 L953,275 L954,276 L960,276 L961,277 L974,277 L975,278 L1014,278 L1015,277 L1029,277 L1030,276 L1040,276 L1041,275 L1054,274 L1055,272 L1054,271 L1054,259 L1055,258 L1054,245 L1049,245 L1048,246 L1039,246 L1038,247 L1025,247 L1024,248 L972,248 L971,247 L960,246 L948,241 L942,236 L942,235 L938,231 L934,224 L934,222 L932,218 L932,215 L931,214 L931,210 L930,209 L930,201 L929,200 L929,185 L930,184 L930,175 L931,174 L931,170 L932,169 L933,164 L938,154 L946,146 L953,142 L955,142 L959,140 L962,140 L963,139 L968,139 L969,138 L977,138 L978,137 L1011,137 L1012,138 L1038,139 L1039,140 L1045,140 L1046,141 L1052,141 L1054,142 L1054,127 L1055,126 L1054,113 L1051,113 L1050,112 L1045,112 L1044,111 L1039,111 L1038,110 L1031,110 L1030,109 L1019,109 L1018,108 L967,108 L966,109 L958,109 L957,110 L953,110 L952,111 L949,111 L948,112 L942,113 L939,115 L937,115 L933,117 L931,119 L925,122 L921,126 Z M512,119 L507,124 L507,125 L503,130 L500,137 L499,145 L498,146 L498,170 L499,171 L499,175 L503,184 L511,193 L521,199 L523,199 L530,202 L533,202 L534,203 L539,203 L540,204 L548,204 L549,205 L561,205 L562,206 L597,207 L598,208 L608,208 L609,209 L612,209 L613,210 L620,212 L626,218 L627,220 L627,223 L628,224 L628,232 L627,233 L627,236 L625,240 L619,246 L615,247 L614,248 L611,248 L610,249 L604,249 L603,250 L592,250 L591,251 L559,251 L558,250 L542,250 L541,249 L519,248 L518,247 L512,247 L511,246 L499,245 L499,274 L510,275 L511,276 L518,276 L519,277 L528,277 L529,278 L541,278 L542,279 L565,279 L566,280 L596,280 L597,279 L609,279 L610,278 L615,278 L616,277 L626,276 L638,271 L644,266 L645,266 L652,258 L656,250 L656,248 L658,244 L658,239 L659,238 L659,217 L658,216 L658,212 L653,200 L645,191 L635,185 L633,185 L630,183 L623,182 L622,181 L616,181 L615,180 L609,180 L608,179 L597,179 L596,178 L558,177 L557,176 L549,176 L548,175 L545,175 L544,174 L537,172 L532,168 L530,164 L530,161 L529,160 L529,153 L530,152 L530,149 L532,145 L537,140 L541,138 L543,138 L544,137 L548,137 L549,136 L559,136 L560,135 L602,135 L603,136 L620,136 L621,137 L630,137 L631,138 L638,138 L639,139 L651,140 L651,112 L650,111 L645,111 L644,110 L639,110 L638,109 L631,109 L630,108 L620,108 L619,107 L606,107 L605,106 L556,106 L555,107 L545,107 L544,108 L539,108 L538,109 L530,110 L529,111 L524,112 L516,116 L513,119 Z M223,18 L215,22 L213,24 L182,39 L180,41 L135,63 L133,65 L50,106 L48,108 L45,109 L39,114 L38,114 L26,126 L20,137 L19,143 L18,144 L18,228 L19,229 L19,232 L21,235 L21,237 L26,245 L36,255 L37,255 L42,259 L45,260 L47,262 L55,266 L57,266 L62,269 L64,269 L69,272 L71,272 L74,274 L79,275 L82,277 L84,277 L87,279 L89,279 L92,281 L94,281 L97,283 L99,283 L102,285 L104,285 L107,287 L109,287 L112,289 L114,289 L117,291 L119,291 L122,293 L124,293 L132,297 L137,298 L140,300 L142,300 L145,302 L147,302 L155,306 L160,307 L163,309 L168,310 L171,312 L173,312 L176,314 L178,314 L181,316 L186,317 L191,320 L193,320 L196,322 L203,324 L232,338 L234,340 L242,344 L254,354 L255,354 L266,366 L266,367 L270,372 L276,386 L276,314 L275,313 L274,308 L266,294 L252,280 L251,280 L248,277 L247,277 L239,271 L236,270 L234,268 L230,267 L225,264 L225,18 Z M174,108 L173,110 L174,112 L173,114 L174,116 L173,118 L174,119 L174,241 L173,242 L168,241 L165,239 L163,239 L160,237 L158,237 L155,235 L153,235 L145,231 L140,230 L132,226 L127,225 L124,223 L122,223 L119,221 L117,221 L114,219 L112,219 L104,215 L99,214 L96,212 L94,212 L91,210 L89,210 L86,208 L84,208 L81,206 L79,206 L76,204 L74,204 L71,202 L64,200 L54,195 L52,193 L47,191 L34,182 L34,181 L43,173 L44,173 L52,167 L57,165 L59,163 L123,131 L125,131 L158,114 L160,114 L173,107 Z" fill="#fff" fill-rule="evenodd"/></svg>